PathFileType	4	(X/Y/Z)	/Users/itak/Documents/Research/Walk-IL/dataset/trc/00177_00008.trc
DataRate	CameraRate	NumFrames	NumMarkers	Units	OrigDataRate	OrigDataStartFrame	OrigNumFrames
100.000000	100.000000	4	53	mm	100.000000	147	588
Frame#	Time	RPSI			LPSI			L3			STRN			T10			C7			CLAV			RBAK			LBAK			LSHO			LUPA			LAEL			LAOL			LWTS			LWPS			LFRA			LIFD			LHPS			LHTS			RSHO			RUPA			RAEL			RAOL			RWTS			RWPS			RFRA			RIFD			RHTS			RHPS			RBHD			LFHD			RFHD			LBHD			LHIP			RHIP			RASI			LASI			LKNE			LTHI			LANK			LTIP			LTOE			LMT1			LMT5			LHEE			RKNE			RTHI			RANK			RTIP			RTOE			RMT1			RMT5			RHEE			
		X1	Y1	Z1	X2	Y2	Z2	X3	Y3	Z3	X4	Y4	Z4	X5	Y5	Z5	X6	Y6	Z6	X7	Y7	Z7	X8	Y8	Z8	X9	Y9	Z9	X10	Y10	Z10	X11	Y11	Z11	X12	Y12	Z12	X13	Y13	Z13	X14	Y14	Z14	X15	Y15	Z15	X16	Y16	Z16	X17	Y17	Z17	X18	Y18	Z18	X19	Y19	Z19	X20	Y20	Z20	X21	Y21	Z21	X22	Y22	Z22	X23	Y23	Z23	X24	Y24	Z24	X25	Y25	Z25	X26	Y26	Z26	X27	Y27	Z27	X28	Y28	Z28	X29	Y29	Z29	X30	Y30	Z30	X31	Y31	Z31	X32	Y32	Z32	X33	Y33	Z33	X34	Y34	Z34	X35	Y35	Z35	X36	Y36	Z36	X37	Y37	Z37	X38	Y38	Z38	X39	Y39	Z39	X40	Y40	Z40	X41	Y41	Z41	X42	Y42	Z42	X43	Y43	Z43	X44	Y44	Z44	X45	Y45	Z45	X46	Y46	Z46	X47	Y47	Z47	X48	Y48	Z48	X49	Y49	Z49	X50	Y50	Z50	X51	Y51	Z51	X52	Y52	Z52	X53	Y53	Z53	

148	1.47	761.0252685546875	1069.9638671875	383.3824768066406	737.6546630859375	1075.659790039062	263.6990051269531	753.876708984375	1112.464233398438	327.3020935058594	1039.170288085938	1289.328247070312	269.8877258300781	744.9166870117188	1277.220092773438	338.5050659179688	846.3428955078125	1534.16943359375	325.5351257324219	1026.037475585938	1406.18115234375	274.220458984375	784.061279296875	1362.068969726562	439.2784729003906	813.1865234375	1521.130859375	227.8896026611328	867.0665283203125	1504.720092773438	133.0593719482422	800.7291870117188	1383.377563476562	66.02828979492188	780.1429443359375	1166.655517578125	39.09312438964844	759.53076171875	1148.73681640625	123.4950485229492	903.39404296875	940.6741943359375	21.94633483886719	814.4038696289062	914.0335693359375	8.972283363342285	790.3126220703125	1055.618896484375	16.4588565826416	940.2567138671875	757.21142578125	24.16429138183594	841.4334106445312	845.7674560546875	2.40376615524292	912.58056640625	864.6476440429688	-5.309383869171143	949.2566528320312	1489.597778320312	483.9450073242188	939.5827026367188	1421.0546875	553.505859375	906.3331909179688	1134.642822265625	606.4451293945312	878.4774169921875	1129.317016601562	514.046142578125	1020.170593261719	900.1460571289062	550.5379028320312	958.352294921875	886.45166015625	612.9888916015625	928.994384765625	1060.026611328125	616.4796142578125	1015.581848144531	714.5848388671875	518.8446044921875	1041.722778320312	805.054931640625	550.9114990234375	979.3504638671875	801.9786987304688	601.433837890625	932.0910034179688	1685.309448242188	389.6646728515625	1009.859069824219	1723.45068359375	190.8531036376953	1073.15234375	1739.274536132812	301.8451232910156	856.8782958984375	1676.708618164062	272.6454162597656	805.4192504882812	1009.984924316406	120.0514907836914	934.4579467773438	1009.809265136719	468.7963562011719	1002.76611328125	1029.76708984375	397.5328979492188	938.8102416992188	1039.095581054688	146.0873565673828	958.0675048828125	517.648681640625	74.88463592529297	913.4611206054688	660.346923828125	72.86855316162109	766.2958984375	72.25689697265625	85.04125213623047	863.5418701171875	300.3685607910156	67.47496032714844	982.1126708984375	59.52190399169922	74.04862976074219	943.2604370117188	61.69718551635742	127.1044998168945	864.6221923828125	52.04665756225586	30.60315132141113	729.8701782226562	82.509765625	162.3143615722656	977.877685546875	511.46826171875	413.36767578125	996.1864624023438	781.962890625	452.1558532714844	846.9920654296875	36.82031631469727	411.2693176269531	979.51123046875	387.2625427246094	392.8927307128906	1071.1337890625	38.751953125	367.041015625	1012.51513671875	38.16958618164062	325.1982116699219	960.79931640625	32.38218307495117	444.1458740234375	793.540283203125	38.48534774780273	345.7680358886719	
149	1.48	758.9951782226562	1069.910278320312	383.9798889160156	735.7279052734375	1075.744018554688	264.2911376953125	751.8734741210938	1112.481811523438	328.0659484863281	1037.062377929688	1289.369018554688	270.505615234375	742.96240234375	1277.2890625	339.7686767578125	844.4845581054688	1534.227783203125	326.9492797851562	1024.0244140625	1406.26708984375	274.9408874511719	782.4763793945312	1362.025512695312	440.6848449707031	811.1239624023438	1521.286865234375	229.3824310302734	864.6119995117188	1504.955078125	134.4125213623047	797.8327026367188	1383.781127929688	67.49648284912109	776.7042236328125	1167.093872070312	40.60322189331055	756.4049682617188	1149.224243164062	125.1280975341797	899.240478515625	940.6892700195312	23.10115814208984	810.1445922851562	914.3678588867188	10.33134746551514	786.4546508789062	1055.9814453125	17.9703197479248	935.5045776367188	757.1105346679688	25.21457862854004	836.9401245117188	845.9881591796875	3.699637889862061	908.1209716796875	864.6439819335938	-4.176445484161377	947.8528442382812	1489.453002929688	485.003173828125	938.5001831054688	1420.818603515625	554.5489501953125	906.2998046875	1134.3828125	607.5965576171875	878.10009765625	1128.846435546875	515.3198852539062	1020.525634765625	900.076171875	551.8798828125	958.8805541992188	886.4326782226562	614.5364990234375	929.1927490234375	1059.903564453125	617.6744995117188	1016.244934082031	714.37939453125	520.9639892578125	1042.316772460938	805.035888671875	552.56884765625	980.114990234375	802.0275268554688	603.2800903320312	931.6581420898438	1685.163940429688	391.4574279785156	1008.34814453125	1723.562866210938	192.2450103759766	1072.48388671875	1738.532104492188	302.8686218261719	855.6582641601562	1677.484008789062	274.9085998535156	803.455078125	1010.390014648438	120.452033996582	932.3440551757812	1009.685913085938	469.3031005859375	1000.7861328125	1029.790405273438	398.1665649414062	936.7283935546875	1039.4814453125	146.7214660644531	958.3588256835938	518.5252075195312	74.31325531005859	913.2896728515625	661.1851806640625	73.12928009033203	755.6461181640625	78.10709381103516	87.66020965576172	858.4208984375	303.3949890136719	68.47683715820312	970.8889770507812	60.63357162475586	73.89786529541016	932.8432006835938	63.67323303222656	127.5113906860352	852.7536010742188	55.72130966186523	32.08202362060547	720.3279418945312	89.08634185791016	165.3005828857422	977.4381713867188	511.5780944824219	413.5273742675781	994.7478637695312	782.0979614257812	452.4892272949219	847.0320434570312	36.84165573120117	411.2646179199219	979.2681884765625	387.3635864257812	393.0518188476562	1071.17919921875	38.68878936767578	366.9939575195312	1012.532897949219	38.16474914550781	325.18603515625	960.8077392578125	32.3681526184082	444.1522827148438	793.673095703125	38.54964447021484	345.7521667480469	
150	1.49	756.98583984375	1069.878540039062	384.4430847167969	733.82568359375	1075.813354492188	264.768310546875	749.866455078125	1112.487426757812	328.6663818359375	1034.909790039062	1289.536743164062	271.1476135253906	740.9241943359375	1277.2958984375	340.8439025878906	842.3790283203125	1534.3046875	328.18359375	1021.883239746094	1406.461059570312	275.6519165039062	780.6878662109375	1361.959716796875	441.9019470214844	808.885009765625	1521.408081054688	230.7049255371094	862.0699462890625	1505.182006835938	135.6178894042969	794.9359741210938	1384.133911132812	68.79964447021484	773.3583984375	1167.490966796875	41.93316268920898	753.3060302734375	1149.6806640625	126.5710525512695	895.0535888671875	940.5849609375	24.20942687988281	805.8355712890625	914.649658203125	11.54525089263916	782.6548461914062	1056.310180664062	19.31421661376953	930.5350341796875	756.8507080078125	26.29597473144531	832.3522338867188	846.1495971679688	4.884949684143066	903.58740234375	864.5021362304688	-3.063926219940186	946.1028442382812	1489.432495117188	485.9815979003906	937.03662109375	1420.715942382812	555.5128784179688	905.9130249023438	1134.232421875	608.6018676757812	877.5618286132812	1128.496704101562	516.40576171875	1020.788818359375	900.2086791992188	553.1961669921875	959.2229614257812	886.544677734375	615.9337768554688	929.0850219726562	1059.889892578125	618.744873046875	1017.036865234375	714.3857421875	522.9951171875	1042.902709960938	805.2403564453125	554.2110595703125	980.7693481445312	802.2304077148438	604.9874877929688	930.9046020507812	1685.104370117188	393.1072082519531	1006.7431640625	1723.739013671875	193.58251953125	1071.583129882812	1737.846923828125	303.8980102539062	854.2526245117188	1678.337890625	276.9447631835938	801.64404296875	1010.739074707031	120.7802886962891	930.2164916992188	1009.614685058594	469.7662658691406	998.811767578125	1029.8818359375	398.7825927734375	934.7787475585938	1039.842407226562	147.3090667724609	958.3025512695312	519.253662109375	73.79274749755859	912.894775390625	661.9010620117188	73.38407897949219	744.2705078125	84.41059112548828	90.35111236572266	852.8925170898438	306.5615844726562	69.55198669433594	958.7610473632812	61.60117340087891	74.21876525878906	921.466796875	65.69636535644531	128.32275390625	840.0968017578125	59.52495574951172	33.87866592407227	709.9338989257812	96.27802276611328	168.2654266357422	976.7735595703125	511.7291564941406	413.7864685058594	993.1803588867188	782.247314453125	452.9525146484375	847.07275390625	36.84829330444336	411.2720336914062	978.8713989257812	387.5157775878906	393.2978820800781	1071.214111328125	38.63063812255859	366.9549865722656	1012.544128417969	38.16371154785156	325.190673828125	960.8117065429688	32.34088134765625	444.1671447753906	793.8020629882812	38.60562896728516	345.7658386230469	
151	1.5	755.0045776367188	1069.872802734375	384.7947082519531	731.9511108398438	1075.86181640625	265.1393127441406	747.8656616210938	1112.480590820312	329.120849609375	1032.720092773438	1289.826538085938	271.802001953125	738.813232421875	1277.248291015625	341.7334594726562	840.0443725585938	1534.399780273438	329.2449951171875	1019.624084472656	1406.75634765625	276.3490905761719	778.6993408203125	1361.873168945312	442.9303894042969	806.4814453125	1521.504760742188	231.8529052734375	859.4492797851562	1505.402587890625	136.6735076904297	792.0482788085938	1384.438598632812	69.93608856201172	770.1055297851562	1167.84814453125	43.09413528442383	750.2503662109375	1150.108032226562	127.8347396850586	890.83544921875	940.3673095703125	25.25878524780273	801.4768676757812	914.8846435546875	12.6225528717041	778.915771484375	1056.609619140625	20.4979248046875	925.35986328125	756.4417724609375	27.38899421691895	827.66748046875	846.2594604492188	5.960235595703125	898.9779052734375	864.2293090820312	-1.986233115196228	944.0234985351562	1489.525512695312	486.8792724609375	935.2045288085938	1420.73828125	556.3981323242188	905.1712646484375	1134.184814453125	609.47900390625	876.84521484375	1128.257202148438	517.322265625	1020.949035644531	900.5426025390625	554.4774780273438	959.3731079101562	886.776611328125	617.1724853515625	928.6616821289062	1059.975830078125	619.7032470703125	1017.953247070312	714.61083984375	524.8967895507812	1043.467895507812	805.6695556640625	555.8140869140625	981.2994995117188	802.576171875	606.5313720703125	929.8230590820312	1685.130004882812	394.6148986816406	1005.021423339844	1723.976928710938	194.8642272949219	1070.435302734375	1737.23828125	304.928466796875	852.6451416015625	1679.25537109375	278.7564697265625	799.9552612304688	1011.038330078125	121.0539779663086	928.1010131835938	1009.595458984375	470.1863708496094	996.8522338867188	1030.0302734375	399.36669921875	932.948974609375	1040.182861328125	147.8419799804688	957.877685546875	519.8302612304688	73.322998046875	912.2661743164062	662.4978637695312	73.60912322998047	732.3160400390625	91.09115600585938	93.06767272949219	847.0094604492188	309.8252258300781	70.67276000976562	945.8629150390625	62.48206329345703	75.05001068115234	909.25537109375	67.79010772705078	129.5613403320312	826.8276977539062	63.4330940246582	35.98570251464844	698.8270263671875	104.0146179199219	171.1514129638672	975.8793334960938	511.9214172363281	414.1371459960938	991.48828125	782.4063720703125	453.5332336425781	847.1146850585938	36.84043502807617	411.2923889160156	978.3156127929688	387.7211303710938	393.6190795898438	1071.237548828125	38.5762825012207	366.9189758300781	1012.549743652344	38.16654205322266	325.208740234375	960.8123168945312	32.30327987670898	444.1884155273438	793.916015625	38.65481185913086	345.8109130859375	
